<?xml version="1.0" standalone="no"?>
<!DOCTYPE svg PUBLIC "-//W3C//DTD SVG 20010904//EN"
 "http://www.w3.org/TR/2001/REC-SVG-20010904/DTD/svg10.dtd">
<svg version="1.0" xmlns="http://www.w3.org/2000/svg"
 width="256.000000pt" height="256.000000pt" viewBox="0 0 256.000000 256.000000"
 preserveAspectRatio="xMidYMid meet">
<metadata>
Created by potrace 1.14, written by Peter Selinger 2001-2017
</metadata>
<g transform="translate(0.000000,256.000000) scale(0.100000,-0.100000)"
fill="#000000" stroke="none">
<path d="M1032 2551 c-18 -11 -35 -45 -88 -174 -24 -59 -57 -136 -74 -172 -16
-35 -30 -70 -30 -78 0 -7 -3 -17 -7 -21 -8 -7 -30 -65 -43 -111 -5 -16 -17
-60 -28 -98 -20 -65 -20 -67 -2 -77 15 -8 21 -4 35 23 40 76 76 143 85 157 5
8 21 42 36 75 14 33 32 74 39 90 7 17 34 81 60 144 26 63 51 122 56 133 5 10
14 27 19 38 12 23 12 41 2 56 -10 16 -45 25 -60 15z"/>
<path d="M1505 2318 c-11 -6 -23 -15 -26 -20 -12 -18 -86 -104 -111 -130 -16
-15 -28 -32 -28 -38 0 -5 -4 -10 -9 -10 -4 0 -37 -35 -72 -77 -35 -43 -71 -85
-79 -94 -35 -37 -60 -70 -60 -79 0 -6 -4 -10 -9 -10 -5 0 -12 -8 -15 -18 -4
-10 -14 -27 -24 -38 -9 -10 -25 -32 -36 -48 -16 -26 -17 -30 -2 -44 14 -15 29
-3 163 134 82 83 159 164 173 181 66 79 109 129 153 176 50 55 60 90 30 113
-22 16 -23 16 -48 2z"/>
<path d="M979 2082 c-11 -24 -19 -46 -19 -48 0 -2 23 -4 51 -4 27 0 70 -5 95
-11 44 -11 46 -11 80 22 19 18 33 38 31 44 -4 11 -52 22 -151 33 l-68 8 -19
-44z"/>
<path d="M650 2108 c-63 -17 -145 -42 -160 -49 -8 -4 -33 -15 -55 -25 -22 -9
-42 -20 -45 -24 -3 -4 -18 -14 -35 -23 -38 -21 -73 -53 -105 -97 -39 -54 -50
-86 -50 -149 0 -64 17 -113 49 -148 12 -12 21 -27 21 -33 0 -5 3 -10 8 -10 4
0 25 -16 47 -35 83 -72 253 -136 415 -157 109 -13 348 -4 420 17 109 31 136
40 182 62 27 13 52 23 58 23 5 0 10 5 10 10 0 6 6 10 13 10 6 0 30 16 52 35
22 19 43 35 47 35 5 0 8 7 8 15 0 8 4 15 8 15 4 0 20 22 35 50 37 69 38 152 1
218 -30 55 -88 118 -127 138 -27 14 -29 14 -59 -18 -28 -30 -29 -33 -12 -43
43 -24 123 -114 134 -152 11 -34 9 -45 -10 -86 -20 -43 -56 -81 -106 -115 -37
-24 -118 -62 -134 -62 -9 0 -21 -5 -27 -11 -58 -58 -608 -58 -666 0 -6 6 -18
11 -27 11 -8 0 -44 14 -79 31 -81 39 -153 110 -171 168 -13 40 -12 46 9 86 56
105 153 161 382 220 59 15 67 20 77 49 7 18 12 38 12 44 0 14 -69 14 -120 0z"/>
<path d="M665 1765 c-27 -26 -30 -41 -15 -80 20 -52 100 -54 126 -3 17 33 12
60 -19 88 -28 27 -63 25 -92 -5z"/>
<path d="M912 1681 c-32 -27 -30 -83 4 -110 35 -27 59 -26 89 4 66 66 -23 167
-93 106z"/>
<path d="M200 1317 c0 -146 4 -238 10 -242 6 -3 10 -13 10 -21 0 -17 8 -27 65
-87 35 -37 115 -97 130 -97 3 0 5 116 5 258 l0 257 -57 35 c-32 18 -82 56
-110 83 l-53 50 0 -236z"/>
<path d="M1553 1508 c-24 -24 -72 -61 -108 -83 l-65 -40 0 -257 c0 -142 3
-258 6 -258 12 0 99 65 130 97 18 18 44 54 58 80 l26 46 -2 229 -3 229 -42
-43z"/>
<path d="M510 1086 l0 -262 108 -26 c59 -15 135 -29 170 -31 l62 -5 0 264 0
264 -37 0 c-38 0 -210 31 -270 49 l-33 10 0 -263z"/>
<path d="M1255 1339 c-68 -21 -221 -49 -267 -49 l-48 0 0 -263 0 -263 68 3
c37 2 115 16 175 30 l107 27 0 263 c0 145 -1 263 -2 262 -2 0 -16 -5 -33 -10z"/>
<path d="M1850 791 c0 -10 -9 -21 -20 -24 -26 -7 -26 -23 -1 -30 17 -4 20 -15
23 -67 3 -55 6 -66 30 -83 25 -18 30 -19 55 -7 l28 14 -35 5 -35 6 -3 68 -3
67 28 0 c15 0 35 5 43 10 12 7 8 10 -15 10 -35 0 -49 8 -58 33 -9 23 -37 22
-37 -2z"/>
<path d="M1583 783 c-30 -11 -11 -24 26 -18 37 6 39 5 50 -26 6 -18 11 -45 11
-60 0 -26 -2 -27 -34 -22 -59 9 -98 -58 -66 -117 13 -24 76 -37 101 -21 11 6
31 11 46 12 28 0 28 1 5 11 -21 10 -22 16 -16 74 12 114 -16 175 -79 173 -18
0 -38 -3 -44 -6z m64 -177 c11 -37 1 -66 -22 -66 -20 0 -30 46 -16 76 15 33
26 30 38 -10z"/>
<path d="M2076 699 c-26 -30 -34 -81 -18 -105 14 -22 77 -54 105 -54 35 0 77
43 77 80 0 46 -21 91 -47 101 -49 18 -90 11 -117 -22z m108 -11 c28 -39 15
-118 -19 -118 -28 0 -66 24 -71 46 -9 35 30 93 63 94 6 0 19 -10 27 -22z"/>
</g>
</svg>
